<?xml version="1.0" encoding="utf-8"?>
<!-- Generator: Adobe Illustrator 26.0.0, SVG Export Plug-In . SVG Version: 6.00 Build 0)  -->
<svg version="1.1" id="Layer_1" xmlns="http://www.w3.org/2000/svg" xmlns:xlink="http://www.w3.org/1999/xlink" x="0px" y="0px"
	 viewBox="0 0 281 47" style="enable-background:new 0 0 281 47;" xml:space="preserve">
<style type="text/css">
	.st0{fill:#0A81C5;}
	.st1{fill:#ECCB1A;}
</style>
<g>
	<path class="st0" d="M1.1,40.6l4.3-5.2c1.8,2.5,3.9,3.7,6.3,3.7c3.1,0,4.8-1.9,4.8-5.6V17.5h-0.1l-5.9-6.3h13.8v21.9
		c0,8.4-4.2,12.5-12.2,12.5C7.6,45.6,3.6,43.8,1.1,40.6z"/>
	<path class="st0" d="M103.7,35.8c0,5.8-4.6,9.2-13.5,9.2H72.8V11.2h16.5c8.4,0,12.8,3.5,12.8,8.8c0,3.4-1.7,6-4.5,7.4
		C101.3,28.6,103.7,31.5,103.7,35.8z M80.5,17.1v8h7.8c3.8,0,5.9-1.4,5.9-4c0-2.7-2.1-4-5.9-4H80.5z M95.9,34.9
		c0-2.8-2.2-4.2-6.2-4.2h-9.1v8.4h9.1C93.7,39.1,95.9,37.8,95.9,34.9z"/>
	<path class="st0" d="M107,41.7l2.7-5.9c2.8,2.1,7.1,3.5,11.1,3.5c4.6,0,6.5-1.5,6.5-3.6c0-6.3-19.6-2-19.6-14.5
		c0-5.7,4.6-10.5,14.2-10.5c4.2,0,8.6,1,11.7,3l-2.4,5.9c-3.1-1.8-6.4-2.7-9.4-2.7c-4.6,0-6.4,1.7-6.4,3.9c0,6.2,19.6,1.9,19.6,14.3
		c0,5.6-4.7,10.5-14.3,10.5C115.4,45.6,110,44,107,41.7z"/>
	<path class="st0" d="M50.8,10.4l-0.3,1.5l1.1,6.1l-7.2,4.2L46.3,12l-0.4-1.6c-8.8,1.2-15.5,8.7-15.5,17.8c0,9.9,8,18,18,18
		s18-8,18-18C66.4,19.1,59.6,11.5,50.8,10.4z M44,24.4l8-4.6l0.4,2l-8.8,5.1L44,24.4z M48.4,40.8L42.2,34l0.9-4.7l9.6-5.5L54.6,34
		L48.4,40.8z"/>
	<path d="M239,35.5c0,5.7-4.3,9-12.8,9h-15.9V11.1h15c7.7,0,12,3.2,12,8.6c0,3.6-1.9,6.2-4.5,7.4C236.5,28.3,239,31.1,239,35.5z
		 M215.1,15v10.7h9.8c4.9,0,7.6-1.8,7.6-5.3c0-3.5-2.8-5.3-7.6-5.3H215.1z M234.2,35.1c0-3.9-2.9-5.6-8.2-5.6h-11v11.1h11
		C231.3,40.7,234.2,39,234.2,35.1z"/>
	<path d="M243.7,11.1h4.8v33.4h-4.8V11.1z"/>
	<path d="M263.8,15.3h-11.4v-4.1H280v4.1h-11.4v29.2h-4.7V15.3z"/>
	<path d="M199.3,33.3c4.7-1.7,7.3-5.4,7.3-10.5c0-7.2-5.2-11.6-13.9-11.6h-13v4.2l4.8,0h8.1c6.1,0,9.3,2.7,9.3,7.5s-3.2,7.5-9.3,7.5
		h-4v4.1h4.1c0.7,0,1.4,0,2.1-0.1l7.2,10.3h5.2L199.3,33.3z"/>
	<path d="M180.2,11.1h-4c2.6,3.3,4.1,7.4,4.1,11.9c0,10.6-8.6,19.2-19.2,19.2c-10.6,0-19.2-8.6-19.2-19.2s8.6-19.2,19.2-19.2
		c2.6,0,5.1,0.5,7.4,1.5c0,2,1.7,3.6,3.7,3.6c2,0,3.7-1.7,3.7-3.7c0-2-1.7-3.7-3.7-3.7c-0.9,0-1.6,0.3-2.3,0.8
		c-2.7-1.2-5.7-1.8-8.9-1.8c-12.4,0-22.5,10.1-22.5,22.5s10.1,22.5,22.5,22.5c12.4,0,22.5-10.1,22.5-22.5
		C183.6,18.7,182.4,14.6,180.2,11.1z"/>
	<circle class="st1" cx="161.1" cy="22.9" r="9.8"/>
</g>
</svg>
